<svg class="diagram-root" style="background: #f5f6f6" xmlns="http://www.w3.org/2000/svg" xmlns:xlink="http://www.w3.org/1999/xlink"><style>.diagram-root { font-family: "Helvetica Neue", sans-serif; font-size: 12px; } .t { overflow: visible; } .t-bg { y: 40; fill: #fff;   } .th { fill: #005aa0;   } .tht { fill: #fff; font-size: 14px;  } .tf { fill: #323c46; overflow: visible; } .tf.pk { fill: #005aa0; font-weight: bold; } .tf.fk { font-weight: bold; } .ty { fill: #adb1b5; font-weight: normal; text-anchor: end; } .r { fill: transparent; stroke: #c3c3c3; stroke-width: 1; } .l { stroke: 1; } .i { fill: #c2c7ce; stroke: #c2c7ce; } .i.ix { fill: #afb3b6; stroke: #000; } .fa { fill: transparent; overflow: visible; } .fa .bg.hover { fill: #f7f7f7; } .c { cy: 12; r: 4; stroke: #d2d2dc; fill: #d2d2dc; } .hr { fill: transparent; stroke: #323c46; stroke-opacity: 0.035; stroke-width: 13; } .dc { stroke: #fa5a3c; fill: #fa5a3c; } .x { stroke: white; stroke-width: 1; } .hl .th { fill: #1b9bff; } .hl .tht {  } .fhl .bg { fill: #e7f4ff; } .fhls .bg {  } .r.hl { stroke: #1b9bff; } .dim { opacity: 0.25; }</style><g class="drawing-wrapper" transform="translate(-20, 6) scale(1,1)"><g class="rs"><path d="M 230.51 81 m -1, 0 a 1,1 0 1,0 2,0 a 1,1 0 1,0 -2,0 M 230.51 81 m -0.5, 0 a 0.5,0.5 0 1,0 1,0 a 0.5,0.5 0 1,0 -1,0  M230.51 81 L230.51 81 242.51 81 M 230.51 87 m -1, 0 a 1,1 0 1,0 2,0 a 1,1 0 1,0 -2,0 M 230.51 87 m -0.5, 0 a 0.5,0.5 0 1,0 1,0 a 0.5,0.5 0 1,0 -1,0  M230.51 87 L230.51 87 237.51 81 230.51 75 M 230.51 75 m -1, 0 a 1,1 0 1,0 2,0 a 1,1 0 1,0 -2,0 M 230.51 75 m -0.5, 0 a 0.5,0.5 0 1,0 1,0 a 0.5,0.5 0 1,0 -1,0  M242.51 81 Q 280.64 81, 318.76 198.5 T 395 316 M 407 316 m -1, 0 a 1,1 0 1,0 2,0 a 1,1 0 1,0 -2,0 M 407 316 m -0.5, 0 a 0.5,0.5 0 1,0 1,0 a 0.5,0.5 0 1,0 -1,0  M407 316 L407 316 395 316 M 407 322 m -1, 0 a 1,1 0 1,0 2,0 a 1,1 0 1,0 -2,0 M 407 322 m -0.5, 0 a 0.5,0.5 0 1,0 1,0 a 0.5,0.5 0 1,0 -1,0  M407 322 L407 322 400 316 407 310 M 407 310 m -1, 0 a 1,1 0 1,0 2,0 a 1,1 0 1,0 -2,0 M 407 310 m -0.5, 0 a 0.5,0.5 0 1,0 1,0 a 0.5,0.5 0 1,0 -1,0 " id="h219041670" class="r"></path><path d="M 230.51 106 m -1, 0 a 1,1 0 1,0 2,0 a 1,1 0 1,0 -2,0 M 230.51 106 m -0.5, 0 a 0.5,0.5 0 1,0 1,0 a 0.5,0.5 0 1,0 -1,0  M230.51 106 L230.51 106 242.51 106 M 230.51 112 m -1, 0 a 1,1 0 1,0 2,0 a 1,1 0 1,0 -2,0 M 230.51 112 m -0.5, 0 a 0.5,0.5 0 1,0 1,0 a 0.5,0.5 0 1,0 -1,0  M230.51 112 L230.51 112 237.51 106 230.51 100 M 230.51 100 m -1, 0 a 1,1 0 1,0 2,0 a 1,1 0 1,0 -2,0 M 230.51 100 m -0.5, 0 a 0.5,0.5 0 1,0 1,0 a 0.5,0.5 0 1,0 -1,0  M242.51 106 Q 287.39 106, 332.26 99 T 422 92 M 434 92 m -1, 0 a 1,1 0 1,0 2,0 a 1,1 0 1,0 -2,0 M 434 92 m -0.5, 0 a 0.5,0.5 0 1,0 1,0 a 0.5,0.5 0 1,0 -1,0  M434 92 L434 92 422 92 M 434 98 m -1, 0 a 1,1 0 1,0 2,0 a 1,1 0 1,0 -2,0 M 434 98 m -0.5, 0 a 0.5,0.5 0 1,0 1,0 a 0.5,0.5 0 1,0 -1,0  M434 98 L434 98 427 92 434 86 M 434 86 m -1, 0 a 1,1 0 1,0 2,0 a 1,1 0 1,0 -2,0 M 434 86 m -0.5, 0 a 0.5,0.5 0 1,0 1,0 a 0.5,0.5 0 1,0 -1,0 " id="h2784726141" class="r"></path><path d="M 255.51 333 m -1, 0 a 1,1 0 1,0 2,0 a 1,1 0 1,0 -2,0 M 255.51 333 m -0.5, 0 a 0.5,0.5 0 1,0 1,0 a 0.5,0.5 0 1,0 -1,0  M255.51 333 L255.51 333 267.51 333 M 255.51 339 m -1, 0 a 1,1 0 1,0 2,0 a 1,1 0 1,0 -2,0 M 255.51 339 m -0.5, 0 a 0.5,0.5 0 1,0 1,0 a 0.5,0.5 0 1,0 -1,0  M255.51 339 L255.51 339 262.51 333 255.51 327 M 255.51 327 m -1, 0 a 1,1 0 1,0 2,0 a 1,1 0 1,0 -2,0 M 255.51 327 m -0.5, 0 a 0.5,0.5 0 1,0 1,0 a 0.5,0.5 0 1,0 -1,0  M267.51 333 Q 306.14 333, 344.76 212.5 T 422 92 M 434 92 m -1, 0 a 1,1 0 1,0 2,0 a 1,1 0 1,0 -2,0 M 434 92 m -0.5, 0 a 0.5,0.5 0 1,0 1,0 a 0.5,0.5 0 1,0 -1,0  M434 92 L434 92 422 92 M 434 98 m -1, 0 a 1,1 0 1,0 2,0 a 1,1 0 1,0 -2,0 M 434 98 m -0.5, 0 a 0.5,0.5 0 1,0 1,0 a 0.5,0.5 0 1,0 -1,0  M434 98 L434 98 427 92 434 86 M 434 86 m -1, 0 a 1,1 0 1,0 2,0 a 1,1 0 1,0 -2,0 M 434 86 m -0.5, 0 a 0.5,0.5 0 1,0 1,0 a 0.5,0.5 0 1,0 -1,0 " id="h3102077576" class="r"></path><path d="M 255.51 358 m -1, 0 a 1,1 0 1,0 2,0 a 1,1 0 1,0 -2,0 M 255.51 358 m -0.5, 0 a 0.5,0.5 0 1,0 1,0 a 0.5,0.5 0 1,0 -1,0  M255.51 358 L255.51 358 267.51 358 M 255.51 364 m -1, 0 a 1,1 0 1,0 2,0 a 1,1 0 1,0 -2,0 M 255.51 364 m -0.5, 0 a 0.5,0.5 0 1,0 1,0 a 0.5,0.5 0 1,0 -1,0  M255.51 364 L255.51 364 262.51 358 255.51 352 M 255.51 352 m -1, 0 a 1,1 0 1,0 2,0 a 1,1 0 1,0 -2,0 M 255.51 352 m -0.5, 0 a 0.5,0.5 0 1,0 1,0 a 0.5,0.5 0 1,0 -1,0  M267.51 358 Q 299.39 358, 331.26 337 T 395 316 M 407 316 m -1, 0 a 1,1 0 1,0 2,0 a 1,1 0 1,0 -2,0 M 407 316 m -0.5, 0 a 0.5,0.5 0 1,0 1,0 a 0.5,0.5 0 1,0 -1,0  M407 316 L407 316 395 316 M 407 322 m -1, 0 a 1,1 0 1,0 2,0 a 1,1 0 1,0 -2,0 M 407 322 m -0.5, 0 a 0.5,0.5 0 1,0 1,0 a 0.5,0.5 0 1,0 -1,0  M407 322 L407 322 400 316 407 310 M 407 310 m -1, 0 a 1,1 0 1,0 2,0 a 1,1 0 1,0 -2,0 M 407 310 m -0.5, 0 a 0.5,0.5 0 1,0 1,0 a 0.5,0.5 0 1,0 -1,0 " id="h175481269" class="r"></path><path d="M 220 512 m -1, 0 a 1,1 0 1,0 2,0 a 1,1 0 1,0 -2,0 M 220 512 m -0.5, 0 a 0.5,0.5 0 1,0 1,0 a 0.5,0.5 0 1,0 -1,0  M220 512 L220 512 208 512 M214 518 L214 518 214 506 M208 512 C 158 512, 45.80000000000001 316, 395 316 M 407 316 m -1, 0 a 1,1 0 1,0 2,0 a 1,1 0 1,0 -2,0 M 407 316 m -0.5, 0 a 0.5,0.5 0 1,0 1,0 a 0.5,0.5 0 1,0 -1,0  M407 316 L407 316 395 316 M401 322 L401 322 401 310" id="h221257298" class="r"></path><path d="M 809.04 151 m -1, 0 a 1,1 0 1,0 2,0 a 1,1 0 1,0 -2,0 M 809.04 151 m -0.5, 0 a 0.5,0.5 0 1,0 1,0 a 0.5,0.5 0 1,0 -1,0  M809.04 151 L809.04 151 821.04 151 M815.04 157 L815.04 157 815.04 145 M821.04 151 C 871.04 151, 998.3599999999999 316, 608.84 316 M 596.84 316 m -1, 0 a 1,1 0 1,0 2,0 a 1,1 0 1,0 -2,0 M 596.84 316 m -0.5, 0 a 0.5,0.5 0 1,0 1,0 a 0.5,0.5 0 1,0 -1,0  M596.84 316 L596.84 316 608.84 316 M602.84 322 L602.84 322 602.84 310" id="h1071605340" class="r"></path></g><g class="hrs"></g><g class="ts"><svg width="188.51" height="100" x="434" y="35" id="h3708248841" class="t"><rect height="40" width="188.51" class="th"></rect><text x="13" y="25" class="tht">Departments</text><rect height="60" width="188.51" class="t-bg" y="40"></rect><text x="13" y="61" class="tf pk">dept_no<tspan x="175.51" class="ty">VARCHAR(15)</tspan></text><path d="M7,14A2,2 0 0,1 5,12A2,2 0 0,1 7,10A2,2 0 0,1 9,12A2,2 0 0,1 7,14M12.65,10C11.83,7.67 9.61,6 7, 6A6, 6 0 0, 0 1, 12A6, 6 0 0, 0 7, 18C9.61, 18 11.83, 16.33 12.65, 14H17V18H21V14H23V10H12.65Z" class="i pk" transform="translate(76.37914062499999, 48) scale(0.65)"></path><text x="13" y="86" class="tf">dept_name<tspan x="175.51" class="ty">VARCHAR(30)</tspan></text></svg><svg width="188.51" height="100" x="42" y="24" id="h518886252" class="t"><rect height="40" width="188.51" class="th"></rect><text x="13" y="25" class="tht">Department_Employee</text><rect height="60" width="188.51" class="t-bg" y="40"></rect><text x="13" y="61" class="tf pk">emp_no<tspan x="175.51" class="ty">INTEGER</tspan></text><path d="M7,14A2,2 0 0,1 5,12A2,2 0 0,1 7,10A2,2 0 0,1 9,12A2,2 0 0,1 7,14M12.65,10C11.83,7.67 9.61,6 7, 6A6, 6 0 0, 0 1, 12A6, 6 0 0, 0 7, 18C9.61, 18 11.83, 16.33 12.65, 14H17V18H21V14H23V10H12.65Z" class="i pk" transform="translate(102.17210937499999, 48) scale(0.65)"></path><text x="13" y="86" class="tf pk">dept_no<tspan x="175.51" class="ty">VARCHAR(15)</tspan></text><path d="M7,14A2,2 0 0,1 5,12A2,2 0 0,1 7,10A2,2 0 0,1 9,12A2,2 0 0,1 7,14M12.65,10C11.83,7.67 9.61,6 7, 6A6, 6 0 0, 0 1, 12A6, 6 0 0, 0 7, 18C9.61, 18 11.83, 16.33 12.65, 14H17V18H21V14H23V10H12.65Z" class="i pk" transform="translate(76.37914062499999, 73) scale(0.65)"></path></svg><svg width="188.51" height="100" x="67" y="276" id="h2951077092" class="t"><rect height="40" width="188.51" class="th"></rect><text x="13" y="25" class="tht">Department_Manager</text><rect height="60" width="188.51" class="t-bg" y="40"></rect><text x="13" y="61" class="tf pk">dept_no<tspan x="175.51" class="ty">VARCHAR(15)</tspan></text><path d="M7,14A2,2 0 0,1 5,12A2,2 0 0,1 7,10A2,2 0 0,1 9,12A2,2 0 0,1 7,14M12.65,10C11.83,7.67 9.61,6 7, 6A6, 6 0 0, 0 1, 12A6, 6 0 0, 0 7, 18C9.61, 18 11.83, 16.33 12.65, 14H17V18H21V14H23V10H12.65Z" class="i pk" transform="translate(76.37914062499999, 48) scale(0.65)"></path><text x="13" y="86" class="tf fk">emp_no<tspan x="175.51" class="ty">INTEGER</tspan></text></svg><svg width="189.84" height="225" x="407" y="259" id="h3299212598" class="t"><rect height="40" width="189.84" class="th"></rect><text x="13" y="25" class="tht">Employees</text><rect height="185" width="189.84" class="t-bg" y="40"></rect><text x="13" y="61" class="tf pk">emp_no<tspan x="176.84" class="ty">INTEGER</tspan></text><path d="M7,14A2,2 0 0,1 5,12A2,2 0 0,1 7,10A2,2 0 0,1 9,12A2,2 0 0,1 7,14M12.65,10C11.83,7.67 9.61,6 7, 6A6, 6 0 0, 0 1, 12A6, 6 0 0, 0 7, 18C9.61, 18 11.83, 16.33 12.65, 14H17V18H21V14H23V10H12.65Z" class="i pk" transform="translate(103.502109375, 48) scale(0.65)"></path><text x="13" y="86" class="tf">emp_title_id<tspan x="176.84" class="ty">VARCHAR(15)</tspan></text><text x="13" y="111" class="tf">birth_date<tspan x="176.84" class="ty">DATE</tspan></text><text x="13" y="136" class="tf">first_name<tspan x="176.84" class="ty">VARCHAR(30)</tspan></text><text x="13" y="161" class="tf">last_name<tspan x="176.84" class="ty">VARCHAR(30)</tspan></text><text x="13" y="186" class="tf">sex<tspan x="176.84" class="ty">VARCHAR</tspan></text><text x="13" y="211" class="tf">hire_date<tspan x="176.84" class="ty">DATE</tspan></text></svg><svg width="162.7" height="100" x="220" y="455" id="h3858243705" class="t"><rect height="40" width="162.7" class="th"></rect><text x="13" y="25" class="tht">Salaries</text><rect height="60" width="162.7" class="t-bg" y="40"></rect><text x="13" y="61" class="tf pk">emp_no<tspan x="149.7" class="ty">INTEGER</tspan></text><path d="M7,14A2,2 0 0,1 5,12A2,2 0 0,1 7,10A2,2 0 0,1 9,12A2,2 0 0,1 7,14M12.65,10C11.83,7.67 9.61,6 7, 6A6, 6 0 0, 0 1, 12A6, 6 0 0, 0 7, 18C9.61, 18 11.83, 16.33 12.65, 14H17V18H21V14H23V10H12.65Z" class="i pk" transform="translate(76.36210937499999, 48) scale(0.65)"></path><text x="13" y="86" class="tf">salary<tspan x="149.7" class="ty">INTEGER</tspan></text></svg><svg width="184.04" height="100" x="625" y="94" id="h3517680912" class="t"><rect height="40" width="184.04" class="th"></rect><text x="13" y="25" class="tht">Titles</text><rect height="60" width="184.04" class="t-bg" y="40"></rect><text x="13" y="61" class="tf pk">emp_title_id<tspan x="171.04" class="ty">INTEGER</tspan></text><path d="M7,14A2,2 0 0,1 5,12A2,2 0 0,1 7,10A2,2 0 0,1 9,12A2,2 0 0,1 7,14M12.65,10C11.83,7.67 9.61,6 7, 6A6, 6 0 0, 0 1, 12A6, 6 0 0, 0 7, 18C9.61, 18 11.83, 16.33 12.65, 14H17V18H21V14H23V10H12.65Z" class="i pk" transform="translate(97.70210937499999, 48) scale(0.65)"></path><text x="13" y="86" class="tf">title<tspan x="171.04" class="ty">VARCHAR(60)</tspan></text></svg></g></g><text class="qdbd-link" x="10" y="20">www.quickdatabasediagrams.com</text></svg>